<?xml version="1.0" encoding="UTF-8"?>
<svg width="16px" height="20px" viewBox="0 0 16 20" version="1.1" xmlns="http://www.w3.org/2000/svg" xmlns:xlink="http://www.w3.org/1999/xlink">
    <!-- Generator: Sketch 58 (84663) - https://sketch.com -->
    <title>home_nav bar_icon_message</title>
    <desc>Created with Sketch.</desc>
    <g id="zoocreator" stroke="none" stroke-width="1" fill="none" fill-rule="evenodd">
        <g id="06-作品列表-加载中样式" transform="translate(-1677.000000, -20.000000)" stroke="#282828" stroke-width="1.2">
            <g id="home_nav-bar/style">
                <g id="home_nav-bar/style/state_login">
                    <g id="home_nav-bar/style">
                        <g id="nav-bar_icon_right" transform="translate(1613.000000, 12.000000)">
                            <g id="icon_style/28px-copy" transform="translate(58.000000, 4.000000)">
                                <g id="icon_style/28px">
                                    <g id="icon_style/28px/icon" transform="translate(7.000000, 4.000000)">
                                        <g id="home_nav-bar_icon_message">
                                            <g id="Group" transform="translate(0.000414, 0.000000)">
                                                <path d="M4.40343216,16.2629603 C4.40343216,17.6967765 5.56576983,18.8591141 6.99958601,18.8591141 L6.99958601,18.8591141 C8.43340218,18.8591141 9.59573985,17.6967765 9.59573985,16.2629603" id="Path"></path>
                                                <path d="M1.03276597,12.4771752 L1.03276597,8.7432598 C1.03276597,5.57092525 3.7047116,3 7.00169796,3 C10.2986843,3 12.9706299,5.57092525 12.9706299,8.7432598 L12.9706299,12.4771752 L13.9661418,15.2333027 C14.0758344,15.5340074 13.9102607,15.8645833 13.5956707,15.9681373 C13.5315109,15.9900429 13.4652814,16 13.3990519,16 L0.600204673,16 C0.269057267,16 0,15.7411152 0,15.4224877 C0,15.3567708 0.0103483564,15.2930453 0.0331147406,15.2313113 L1.03276597,12.4771752 Z" id="Path" fill-rule="nonzero"></path>
                                                <path d="M5.99958601,3.13516648 L5.99958601,1.93194671 C5.99958601,1.37966196 6.44730126,0.931946713 6.99958601,0.931946713 C7.55187076,0.931946713 7.99958601,1.37966196 7.99958601,1.93194671 L7.99958601,3.13516648" id="Path"></path>
                                            </g>
                                        </g>
                                    </g>
                                </g>
                            </g>
                        </g>
                    </g>
                </g>
            </g>
        </g>
    </g>
</svg>